<?xml version="1.0" standalone="no"?><!DOCTYPE svg PUBLIC "-//W3C//DTD SVG 1.1//EN" "http://www.w3.org/Graphics/SVG/1.1/DTD/svg11.dtd"><svg t="1540883101784" class="icon" style="" viewBox="0 0 1024 1024" version="1.1" xmlns="http://www.w3.org/2000/svg" p-id="8103" xmlns:xlink="http://www.w3.org/1999/xlink" width="200" height="200"><defs><style type="text/css"></style></defs><path d="M530.47265659 964.88531437c-6.95045689-4.13969067-16.66192118-11.02703882-24.37211022-11.02703882-6.05479822 0-13.959168 5.84726755-20.73243496 9.52213808-7.16041482 3.89211022-20.81496178 5.37031111-20.81496178 5.37031112l3.211264-17.67044742 25.70224829-17.66923378 48.41289956-0.0449043 5.76595437 34.996224c0.00121363 0-11.53797689-0.12379022-17.17164563-3.47704888zM333.10613808 1015.87232237c-97.90350222 4.57659733-179.12930608-28.66471822-181.40850253-74.23651082-2.28526459-45.58150163 75.23047348-86.23930785 173.13276208-90.81105066 97.90350222-4.57902459 179.11838341 28.66350459 181.40728889 74.23529719 2.28769185 45.57907437-75.22925985 86.23445333-173.13154844 90.81347792zM679.16777245 1015.87232237c-97.83068445-4.57902459-175.29909097-45.23804445-173.01139912-90.81347792 2.28526459-45.57300622 83.44553245-78.82038992 181.28107142-74.2352972 97.84282075 4.57052918 175.30394548 45.22954903 173.01504 90.81105067-2.28405097 45.57179259-83.44553245 78.81189452-181.28228505 74.23651083z" fill="#F2B624" p-id="8104"></path><path d="M505.66970785 955.32191289c-201.79990755 0-366.22366341-133.38517808-366.2236634-344.61862874 0-207.29400889 163.5899923-375.36350815 365.39354073-375.36350815s365.39475437 168.06828563 365.39475437 375.36350815c0.00121363 209.93972148-162.758656 344.61862875-364.55856355 344.61862874zM934.91837155 790.25978785c-25.51292208 52.54409482-170.29044148-148.49001245-100.37809303-354.22693452 0 0 177.2955117 177.55522845 100.37809303 354.22693452zM78.62742282 790.24401067c-79.34225067-173.38034252 94.61213867-356.19180089 94.61213866-356.19180089 71.28739082 204.52329245-68.86013155 408.33661155-94.61213866 356.19180089z" fill="#191919" p-id="8105"></path><path d="M224.99965155 631.97699792c0 167.82191882 111.24371911 301.41948208 281.65552356 301.41948208 170.42394075 0 280.46859378-133.59634963 280.46859378-301.41948208 0-160.04862103-121.50981215-281.94436741-281.06569956-281.9443674s-281.05841778 121.89089185-281.05841778 281.9443674z" fill="#FAFAFB" p-id="8106"></path><path d="M827.21481008 374.35619555c10.46755555 0 18.9520403 4.12148622 18.95204029 9.1993126s-7.18954192 30.26185482-17.65952474 30.26185482-20.24455585-25.1864557-20.24455585-30.26185482 8.48327111-9.19931259 18.9520403-9.1993126zM184.04207882 375.70211082c10.28672475 0 18.62557392 4.59722903 18.62557393 10.27094755s-8.21991348 31.07741392-18.50785186 31.07741393-18.743296-25.40248178-18.743296-31.07741393c0.00121363-5.66643675 8.33884918-10.27094755 18.62678756-10.27094755z" fill="#D32F19" p-id="8107"></path><path d="M838.27340325 325.79766045c-5.24530725 187.072512-57.13889659 234.15648711-333.41318636 234.1564871s-333.60493985-44.77929245-333.60493986-231.92704947c0-204.29998459 149.08711822-351.41252741 332.97263882-351.41252741 183.90372503 0 339.18035437 165.90317037 334.04791467 349.18187615z" fill="#191919" p-id="8108"></path><path d="M381.09790815 767.30276978c-27.0336 0.71361422-90.21515852-7.34488652-106.56396326-25.34665481-6.85579378-7.54149452-8.19928178-12.25401837-8.19928178-29.5688723 0-98.40715852 20.49699082-168.96758518 20.49699081-168.96758519 65.8187757-74.10665245 114.83606282 33.00344415 114.83606283 33.00344415v170.57685807c0 12.66786608-9.863168 20.0091117-20.56495408 20.2955283zM506.05806933 630.71725037c-168.51247408 0-329.03198341-83.95040237-370.72622933-147.51668148 1.7816083-3.89453748 21.75673837-74.43190518 30.0276243-99.27854459 17.24931792 36.32878933 114.77295408 146.72660859 340.6973914 146.72660859 225.92929185 0 327.47246933-121.8435603 339.66095171-150.86994014 12.40329482 36.25475792 27.131904 96.07213511 28.99118459 103.41702162-65.64765392 86.27571675-219.85022103 147.51789511-368.65456355 147.51789511z" fill="#D32F19" p-id="8109"></path><path d="M360.13852445 233.57758578c-1.88233955-48.91412859 24.61604978-89.79281541 59.15594903-91.30985245 34.55203555-1.51703703 64.0735763 36.91133155 65.94377955 85.82060564 1.88233955 48.90077867-24.59541808 89.77339733-59.14381273 91.29892978-34.56781275 1.507328-64.09906252-36.92225422-65.95712948-85.80968297zM527.01623941 230.981632c0-48.91534222 28.01906725-88.57433125 62.56988918-88.57433125s62.5662483 39.66020267 62.5662483 88.57433125c0 48.90927408-28.01785363 88.55855408-62.5662483 88.55855408-34.55203555 0-62.56988918-39.64806637-62.56988918-88.55855408z" fill="#FFFFFF" p-id="8110"></path><path d="M655.87579259 446.11811555c-73.17579852 38.00845275-92.20065659 60.07830755-151.01800296 60.11350282-57.54667615 0.032768-77.84705897-22.10505008-151.02043022-60.11350282-115.11519763-59.78339555-63.80293689-64.8029677 9.41897956-86.59975585 43.42124089-12.91787378 103.14759585-19.24573867 141.60751881-19.24573867s98.17899615 6.324224 141.59659614 19.24573867c73.21948918 21.79193363 124.53539082 26.81393303 9.41169778 86.59975585z" fill="#EFB024" p-id="8111"></path><path d="M683.42275792 392.30941867s-22.67424237 31.97671348-84.39094992 54.58663348c-32.31895703 11.84502518-45.84607289 39.81797452-92.97009778 39.81797452s-60.44603733-27.82974103-92.7128083-39.81797452c-60.88658489-22.61962903-84.40551348-54.58663348-84.40551347-54.58663348 13.70309215 10.13259378 68.23996682 50.47364267 177.11832177 50.47364266 108.88078222 0 163.6640237-40.34590341 177.3646886-50.47364266z" fill="#8A3322" p-id="8112"></path><path d="M612.06861748 257.06253275c-4.71131022 0-8.55730252-3.5510803-8.55730251-7.95048772v-1.84228978c0-20.7215123-8.44928948-36.9416723-19.27486579-36.94167228-10.81708089 0-19.300352 16.21773275-19.300352 36.94167228v1.84228978c0 4.39698015-3.81686518 7.9504877-8.55730251 7.95048772-4.71131022 0-8.55730252-3.5510803-8.55730252-7.95048772v-1.84228978c0-31.12353185 14.98225778-52.87056118 36.41252977-52.87056117 21.43876741 0 36.38582992 21.74702933 36.38582993 52.87056117v1.84228978c-0.00121363 4.39698015-3.84477867 7.9504877-8.55972977 7.95048772zM464.41479585 232.18312533c1.81801718 23.01163141-10.715136 43.4709997-28.0129991 45.70650549-17.27116325 2.21366045-32.77649541-14.61088711-34.59572623-37.6213049-1.84228978-23.01163141 10.69207703-43.4709997 27.9632403-45.70650547 17.29786311-2.21366045 32.80440889 14.61088711 34.64669866 37.62130488z" fill="#191919" p-id="8113"></path><path d="M453.95937659 230.10175052c0.23544415 8.61070222-4.18823585 16.00777482-9.95054934 16.45439051-5.7137683 0.50001541-10.55736415-6.08149808-10.82314903-14.74195911-0.26578489-8.58036148 4.21250845-16.00777482 9.95054933-16.50900384 5.73682725-0.44904297 10.584064 6.15795675 10.82314904 14.79778607z" fill="#FFFFFF" p-id="8114"></path></svg>