<?xml version="1.0" standalone="no"?><!DOCTYPE svg PUBLIC "-//W3C//DTD SVG 1.1//EN" "http://www.w3.org/Graphics/SVG/1.1/DTD/svg11.dtd"><svg t="1540883091941" class="icon" style="" viewBox="0 0 1024 1024" version="1.1" xmlns="http://www.w3.org/2000/svg" p-id="7992" xmlns:xlink="http://www.w3.org/1999/xlink" width="200" height="200"><defs><style type="text/css"></style></defs><path d="M0 0h0.07C0.05 0 0.02 0.01 0 0.01V0zM462.68 399.58c71.92-9.14 148.26-6.58 214.8 24.96 6.66 2.54 10.91 9.05 11.25 16.08-4.64 6.38-10.94 11.21-16.98 16.16-54.15 42.26-111.16 80.65-166.03 121.94-2.99 1.88-6.01 7.05-1.42 8.98 16.63 8.72 35.49 11.37 53.14 17.29 55.77 12.44 113.34 17.71 170.4 16.85 23.35-1.29 46.76-1.77 70.15-1.47 3.11-0.37 5.21 2.52 5.97 5.19-147.42 53.23-306.75 73.79-462.82 60.11-5.52-0.38-10.91-1.67-16.13-3.43-6.76-5.55-7.54-17-0.14-22.36 54.06-43.99 110.7-84.67 166.99-125.72 22.33-16.1 44.81-32 66.94-48.36 3.61-2.12 4.91-8.13 0.93-10.5-35.75-14.64-74.52-19.09-112.72-22.18-34.45-2.97-69.12-1.17-103.45 2.39-14.46 1.38-28.82 4.42-43.41 3.35-3.62-5.26-2.81-13.54 3.74-15.99 49.78-23.85 104.22-36.54 158.79-43.29zM0 1022.04c16.61 1.33 33.64-2.72 49.92 1.96H0v-1.96z" fill="#FFFFFF" p-id="7993"></path><path d="M499.48 123.45c4.6-9.22 20.38-10.83 25.07-0.85 40.32 73.29 80.78 146.51 121.14 219.79 2.54 5.78 7.26 10.58 13.27 12.7 84.09 15.23 168.28 30.52 252.45 45.53 10.72 1.17 15.83 16.37 8.16 23.87-61.96 64.7-124.51 128.85-186.01 194-1.47 1.76-3.31 3.31-5.72 3.35-57.06 0.86-114.63-4.41-170.4-16.85 45.02-48.48 95.66-91.35 141.98-138.58 8.3-9.12 0.75-24.1-10.69-25.79-0.34-7.03-4.59-13.54-11.25-16.08-66.54-31.54-142.88-34.1-214.8-24.96-54.57 6.75-109.01 19.44-158.79 43.29-6.55 2.45-7.36 10.73-3.74 15.99 1.75 3.94 5.33 7.04 9.82 6.98 57.18 4.61 114.69 20.21 162.68 52.45 6.68 4.92 15.03 8.25 19.21 15.87-56.29 41.05-112.93 81.73-166.99 125.72-7.4 5.36-6.62 16.81 0.14 22.36-4.73 14.4 11.9 20.37 22.77 22.86 131.29 30.23 266.82 38.14 401.13 33.77 8.8 46.91 15.66 94.24 23.79 141.3 2.38 9.7-8.72 19.62-17.96 15.07-77.45-36.75-154.74-73.82-232.03-110.9-4.32-2.17-9.61-2.84-14.06-0.66-79.28 37.08-158.57 74.11-237.83 111.2-8.38 4.28-19.43-3.63-18.59-12.85 13.37-83.95 28.09-167.69 42.17-251.52 0.93-5.55 0.41-11.88-3.94-15.92-61.6-63.75-123.32-127.38-184.91-191.13-7.41-7.37-1.55-21.47 8.58-22.44 84.78-15.7 169.62-31.08 254.46-46.45 3.48-0.54 6.14-3.19 7.86-6.1 40.97-75.03 82-150.02 123.03-225.02z" fill="#FECE00" p-id="7994"></path><path d="M671.75 456.78c6.04-4.95 12.34-9.78 16.98-16.16 11.44 1.69 18.99 16.67 10.69 25.79-46.32 47.23-96.96 90.1-141.98 138.58-17.65-5.92-36.51-8.57-53.14-17.29-4.59-1.93-1.57-7.1 1.42-8.98 54.87-41.29 111.88-79.68 166.03-121.94zM343.56 455.51c34.33-3.56 69-5.36 103.45-2.39 38.2 3.09 76.97 7.54 112.72 22.18 3.98 2.37 2.68 8.38-0.93 10.5-22.13 16.36-44.61 32.26-66.94 48.36-4.18-7.62-12.53-10.95-19.21-15.87-47.99-32.24-105.5-47.84-162.68-52.45-4.49 0.06-8.07-3.04-9.82-6.98 14.59 1.07 28.95-1.97 43.41-3.35zM341.14 685.67c156.07 13.68 315.4-6.88 462.82-60.11 0.23 3.16-0.17 6.55-2.27 9.08-16.93 20.96-38.09 37.92-59.82 53.64 0.42 17 5.44 33.65 7.04 50.59-134.31 4.37-269.84-3.54-401.13-33.77-10.87-2.49-27.5-8.46-22.77-22.86 5.22 1.76 10.61 3.05 16.13 3.43z" fill="#F2A308" p-id="7995"></path></svg>