<?xml version="1.0" standalone="no"?><!DOCTYPE svg PUBLIC "-//W3C//DTD SVG 1.1//EN" "http://www.w3.org/Graphics/SVG/1.1/DTD/svg11.dtd"><svg t="1540883123389" class="icon" style="" viewBox="0 0 1025 1024" version="1.1" xmlns="http://www.w3.org/2000/svg" p-id="8344" xmlns:xlink="http://www.w3.org/1999/xlink" width="200.1953125" height="200"><defs><style type="text/css"></style></defs><path d="M304.55 163.25c-133.65 0-242.1 108.9-242.1 242.1 0 38.25 9 76.5 26.55 110.25 5.4 10.8 18.45 14.85 28.8 9 10.8-5.4 14.85-18.45 9.45-28.8-14.4-28.35-22.050-58.95-22.050-90.9 0-109.8 89.55-198.9 199.35-198.9s199.35 89.55 199.35 198.9c0 109.8-89.55 198.9-199.35 198.9-15.3 0-30.15-1.8-45-4.95-11.7-2.7-22.95 4.5-25.65 16.2-2.25 11.25 4.5 22.95 16.2 25.65 17.55 4.050 36 5.85 54.45 5.85 133.65 0 242.55-108.9 242.55-242.1 0-132.3-108.45-241.2-242.55-241.2zM262.25 467c13.050 9 28.8 14.4 45.9 14.4 44.55 0 80.1-35.55 80.1-80.1 0-44.1-35.55-80.1-80.1-80.1-44.1 0-80.1 35.55-80.1 80.1 0 11.7 2.25 22.5 6.75 31.95-17.1 18-36 40.95-54.9 68.4-51.3 76.050-108.9 217.8-92.25 399.6 0.9 11.25 10.35 32.4 21.15 32.4h2.25c11.7 0 20.7-24.3 19.8-36-12.6-135 16.2-261.9 84.15-364.050 15.75-23.85 32.4-50.4 47.25-66.6zM754.55 341.45c-17.55 0.9-35.55-3.15-51.75-10.8-56.25-27-80.55-94.050-53.55-150.3 26.55-56.7 94.050-80.55 150.3-53.55 56.25 26.55 80.1 94.050 53.55 150.3-3.6 7.65-8.1 15.3-13.5 22.050-4.050 5.4-3.15 13.050 1.8 17.1 5.4 4.050 13.050 3.15 17.1-2.25 6.3-8.1 11.7-17.1 16.65-26.55 32.85-68.4 3.6-150.75-64.8-183.15-68.4-32.4-150.75-3.15-183.15 65.25-32.4 68.4-3.15 150.75 65.25 183.15 19.8 9.45 41.4 13.95 63 13.5 6.75-0.45 12.15-5.85 12.15-12.6-0.45-7.2-6.3-12.6-13.050-12.15zM954.35 434.15c-72-26.55-126.9-70.2-162.45-130.050-8.55-13.95-14.85-27.45-19.35-39.15 7.65-4.5 14.4-11.25 18.45-19.8 10.8-22.5 0.9-49.95-21.6-60.75-22.95-10.8-49.95-1.35-60.75 21.6-10.8 22.95-1.35 49.95 21.6 60.75 5.85 2.7 11.7 4.050 18 4.5 4.95 13.050 12.15 28.35 21.6 44.55 26.55 45 78.75 105.75 175.95 141.75 6.3 2.25 12.6-0.45 15.3-6.3 0-0.45 0.45-0.45 0.45-1.35 2.25-6.3-0.9-13.050-7.2-15.75z" fill="#45B4FF" p-id="8345"></path></svg>