<?xml version="1.0" standalone="no"?><!DOCTYPE svg PUBLIC "-//W3C//DTD SVG 1.1//EN" "http://www.w3.org/Graphics/SVG/1.1/DTD/svg11.dtd"><svg t="1540883080615" class="icon" style="" viewBox="0 0 1274 1024" version="1.1" xmlns="http://www.w3.org/2000/svg" p-id="7883" xmlns:xlink="http://www.w3.org/1999/xlink" width="248.828125" height="200"><defs><style type="text/css"></style></defs><path d="M1000.009143 602.383673c-21.942857 0-44.032-21.524898-44.032-43.467755 0-21.629388 22.089143-43.425959 44.032-43.425959 33.227755 0 55.484082 21.796571 55.484081 43.425959 0 21.942857-22.256327 43.467755-55.484081 43.467755m-243.92098 0c-22.089143 0-44.345469-21.524898-44.345469-43.467755 0-21.629388 22.256327-43.425959 44.345469-43.425959 33.562122 0 55.50498 21.796571 55.50498 43.425959 0 21.942857-21.942857 43.467755-55.50498 43.467755m498.938776 54.334694c0-173.662041-177.423673-315.18302-376.643919-315.18302-210.985796 0-377.145469 141.541878-377.145469 315.203918 0 173.933714 166.138776 315.224816 377.145469 315.224817 44.157388 0 88.690939-10.929633 133.036409-21.81747l121.626122 65.243429-33.332245-108.564898c88.98351-65.368816 155.313633-152.137143 155.313633-250.085878M301.557551 308.997224c-33.248653 0-66.76898-21.817469-66.76898-54.355591 0-32.705306 33.541224-54.230204 66.76898-54.230204 33.227755 0 55.337796 21.524898 55.337796 54.230204 0 32.538122-22.110041 54.334694-55.337796 54.334694M611.892245 200.411429c33.374041 0 55.50498 21.524898 55.504979 54.230204 0 32.538122-22.151837 54.334694-55.504979 54.334694-33.227755 0-66.580898-21.796571-66.580898-54.334694 0-32.705306 33.353143-54.230204 66.580898-54.230204m238.424816 117.76c14.356898 0 28.588408 1.044898 42.715429 2.591347C854.642939 145.742367 663.635592 15.736163 445.607184 15.736163 201.853388 15.736163 2.194286 178.468571 2.194286 385.12849c0 119.306449 66.434612 217.255184 177.423673 293.240163l-44.345469 130.674939 155.021061-76.152163c55.442286 10.741551 99.954939 21.796571 155.313633 21.796571 13.918041 0 27.731592-0.668735 41.377959-1.713633a317.022041 317.022041 0 0 1-13.646367-91.03151c-0.020898-189.753469 166.347755-343.771429 376.978285-343.771428" fill="#0ADA16" p-id="7884"></path></svg>