<?xml version="1.0" standalone="no"?><!DOCTYPE svg PUBLIC "-//W3C//DTD SVG 1.1//EN" "http://www.w3.org/Graphics/SVG/1.1/DTD/svg11.dtd"><svg t="1540883106425" class="icon" style="" viewBox="0 0 1024 1024" version="1.1" xmlns="http://www.w3.org/2000/svg" p-id="8222" xmlns:xlink="http://www.w3.org/1999/xlink" width="200" height="200"><defs><style type="text/css"></style></defs><path d="M491.52 0c-20.48 0-40.96 2.275556-59.164444 4.551111-47.786667 4.551111-93.297778 15.928889-136.533334 31.857778 0 0 354.986667 336.782222 364.088889 350.435555V27.306667c-11.377778-4.551111-20.48-6.826667-31.857778-9.102223-43.235556-11.377778-88.746667-18.204444-136.533333-18.204444z" fill="#F26848" p-id="8223"></path><path d="M853.333333 118.328889c-13.653333-15.928889-29.582222-29.582222-45.511111-40.96C769.137778 45.511111 728.177778 20.48 682.666667 0c0 0 2.275556 530.204444 0 546.133333l273.066666-279.893333c-4.551111-11.377778-11.377778-20.48-15.928889-31.857778-22.755556-40.96-52.337778-79.644444-86.471111-116.053333z" fill="#5D62D4" p-id="8224"></path><path d="M987.591111 295.822222S650.808889 650.808889 637.155556 659.911111h359.537777c4.551111-11.377778 6.826667-20.48 9.102223-31.857778 11.377778-43.235556 18.204444-88.746667 18.204444-136.533333 0-20.48-2.275556-40.96-4.551111-59.164444-4.551111-47.786667-15.928889-93.297778-31.857778-136.533334z" fill="#4694E9" p-id="8225"></path><path d="M757.76 955.733333c9.102222-4.551111 20.48-11.377778 29.582222-15.928889 38.684444-22.755556 75.093333-52.337778 106.951111-86.471111 13.653333-13.653333 27.306667-29.582222 38.684445-45.511111 27.306667-38.684444 52.337778-79.644444 70.542222-125.155555 0 0-484.693333 2.275556-500.622222 0l254.862222 273.066666z" fill="#69DEF0" p-id="8226"></path><path d="M364.088889 637.155556v359.537777c11.377778 4.551111 20.48 6.826667 31.857778 9.102223 43.235556 11.377778 88.746667 18.204444 136.533333 18.204444 20.48 0 40.96-2.275556 59.164444-4.551111 47.786667-4.551111 93.297778-15.928889 136.533334-34.133333C728.177778 987.591111 373.191111 650.808889 364.088889 637.155556z" fill="#83E45A" p-id="8227"></path><path d="M341.333333 455.111111L68.266667 735.004444c4.551111 11.377778 11.377778 20.48 15.928889 31.857778 22.755556 43.235556 52.337778 81.92 86.471111 116.053334 13.653333 15.928889 29.582222 29.582222 45.511111 40.96C254.862222 955.733333 298.097778 983.04 341.333333 1001.244444c0 0-2.275556-530.204444 0-546.133333z" fill="#BBDC64" p-id="8228"></path><path d="M18.204444 395.946667c-11.377778 43.235556-18.204444 88.746667-18.204444 136.533333 0 20.48 2.275556 40.96 4.551111 59.164444 4.551111 47.786667 15.928889 93.297778 34.133333 136.533334 0 0 336.782222-354.986667 350.435556-364.088889H27.306667c-4.551111 11.377778-6.826667 20.48-9.102223 31.857778z" fill="#F3DF68" p-id="8229"></path><path d="M248.035556 84.195556C207.075556 106.951111 170.666667 136.533333 136.533333 170.666667c-13.653333 13.653333-27.306667 29.582222-40.96 45.511111C65.991111 254.862222 40.96 295.822222 22.755556 341.333333c0 0 507.448889-2.275556 523.377777 0L277.617778 68.266667c-11.377778 4.551111-20.48 11.377778-29.582222 15.928889z" fill="#F7B964" p-id="8230"></path></svg>