<?xml version="1.0" standalone="no"?><!DOCTYPE svg PUBLIC "-//W3C//DTD SVG 1.1//EN" "http://www.w3.org/Graphics/SVG/1.1/DTD/svg11.dtd"><svg t="1540883143542" class="icon" style="" viewBox="0 0 1024 1024" version="1.1" xmlns="http://www.w3.org/2000/svg" p-id="8453" xmlns:xlink="http://www.w3.org/1999/xlink" width="200" height="200"><defs><style type="text/css"></style></defs><path d="M815.786667 573.44c-6.826667-13.653333-17.066667-23.893333-27.306667-34.133333-10.24-10.24-23.893333-17.066667-34.133333-23.893334s-20.48-6.826667-27.306667-10.24c-10.24-3.413333-17.066667-3.413333-20.48-10.24-3.413333-3.413333-3.413333-6.826667 0-10.24l3.413333-3.413333 3.413334-3.413333s3.413333-3.413333 3.413333-10.24c3.413333-3.413333 3.413333-10.24 3.413333-13.653334 0-3.413333 3.413333-10.24 3.413334-17.066666v-17.066667c0-3.413333-6.826667-10.24-6.826667-17.066667-3.413333-6.826667-6.826667-13.653333-13.653333-17.066666-10.24-10.24-20.48-17.066667-37.546667-17.066667-13.653333-3.413333-30.72-3.413333-44.373333 0s-30.72 6.826667-44.373334 10.24c-13.653333 3.413333-23.893333 6.826667-34.133333 10.24l-13.653333 6.826667c-6.826667 3.413333-13.653333 3.413333-17.066667 3.413333h-10.24c-3.413333 0-3.413333-3.413333-6.826667-3.413333s-3.413333-3.413333 0-6.826667 0-6.826667 0-10.24c0-3.413333 0-6.826667 3.413334-13.653333 0-6.826667 3.413333-10.24 3.413333-13.653334v-23.893333c0-6.826667-3.413333-13.653333-6.826667-23.893333-3.413333-10.24-6.826667-17.066667-13.653333-20.48-6.826667-6.826667-13.653333-10.24-23.893333-13.653334-10.24-3.413333-23.893333-3.413333-37.546667-3.413333s-34.133333 6.826667-51.2 13.653333c-27.306667 3.413333-51.2 17.066667-75.093333 34.133334-23.893333 17.066667-44.373333 34.133333-64.853334 51.2s-34.133333 34.133333-47.786666 51.2c-13.653333 17.066667-27.306667 30.72-34.133334 40.96l-10.24 17.066666c-23.893333 30.72-37.546667 58.026667-51.2 88.746667S68.266667 607.573333 68.266667 621.226667v20.48c3.413333 34.133333 13.653333 61.44 30.72 88.746666s34.133333 47.786667 58.026666 61.44c20.48 17.066667 47.786667 30.72 78.506667 40.96 30.72 10.24 58.026667 20.48 85.333333 23.893334 27.306667 3.413333 54.613333 10.24 85.333334 10.24 51.2 3.413333 102.4 0 157.013333-10.24s102.4-30.72 150.186667-61.44c47.786667-30.72 78.506667-64.853333 98.986666-105.813334 10.24-23.893333 17.066667-44.373333 17.066667-68.266666 0-20.48-3.413333-37.546667-13.653333-47.786667z m-211.626667 184.32c-51.2 37.546667-112.64 61.44-184.32 64.853333-71.68 3.413333-136.533333-10.24-187.733333-40.96-51.2-30.72-75.093333-71.68-75.093334-119.466666s23.893333-88.746667 75.093334-122.88c51.2-34.133333 112.64-54.613333 187.733333-58.026667 75.093333-3.413333 136.533333 10.24 187.733333 37.546667s75.093333 64.853333 75.093334 112.64c-3.413333 44.373333-27.306667 88.746667-78.506667 126.293333z" fill="#DB1E2A" p-id="8454"></path><path d="M532.48 628.053333c-3.413333-17.066667-13.653333-34.133333-23.893333-47.786666-10.24-13.653333-27.306667-23.893333-47.786667-34.133334-20.48-6.826667-44.373333-10.24-75.093333-6.826666-20.48 3.413333-37.546667 6.826667-51.2 13.653333s-27.306667 17.066667-34.133334 23.893333c-10.24 10.24-17.066667 20.48-23.893333 30.72-6.826667 10.24-10.24 20.48-13.653333 30.72-3.413333 10.24-3.413333 20.48-3.413334 27.306667v30.72c0 3.413333 0 6.826667 3.413334 13.653333 0 6.826667 3.413333 10.24 6.826666 17.066667s6.826667 10.24 10.24 17.066667c6.826667 6.826667 10.24 10.24 20.48 13.653333 44.373333 20.48 85.333333 27.306667 126.293334 20.48 37.546667-6.826667 68.266667-27.306667 92.16-58.026667 10.24-10.24 17.066667-27.306667 17.066666-40.96 3.413333-17.066667 0-34.133333-3.413333-51.2z m-139.946667 78.506667c-3.413333 6.826667-10.24 13.653333-17.066666 17.066667-6.826667 3.413333-17.066667 6.826667-23.893334 6.826666H341.333333c-3.413333 0-6.826667 0-10.24-3.413333-3.413333 0-6.826667-3.413333-10.24-3.413333-3.413333 0-6.826667-3.413333-6.826666-6.826667-3.413333 3.413333-3.413333 0-6.826667-3.413333 0-3.413333-3.413333-3.413333-3.413333-6.826667v-10.24c0-6.826667 3.413333-13.653333 6.826666-20.48 3.413333-6.826667 10.24-13.653333 17.066667-17.066667s13.653333-10.24 20.48-10.24h17.066667c3.413333 0 10.24 3.413333 13.653333 3.413334 3.413333 3.413333 6.826667 3.413333 10.24 6.826666s6.826667 6.826667 6.826667 10.24c0 3.413333 3.413333 6.826667 3.413333 13.653334 0 10.24 0 17.066667-6.826667 23.893333z m51.2-54.613333c0 3.413333-3.413333 6.826667-6.826666 10.24-3.413333 3.413333-10.24 3.413333-13.653334 3.413333-3.413333 0-10.24-3.413333-10.24-6.826667l-3.413333-6.826666v-6.826667-3.413333l3.413333-3.413334s0-3.413333 3.413334-3.413333l3.413333-3.413333c6.826667-3.413333 10.24-6.826667 17.066667-3.413334 3.413333 0 10.24 3.413333 10.24 6.826667 3.413333 3.413333 3.413333 6.826667 3.413333 10.24-3.413333 0-3.413333 3.413333-6.826667 6.826667z" fill="#040000" p-id="8455"></path><path d="M798.72 447.146667c3.413333 0 6.826667 0 10.24-3.413334s6.826667-3.413333 6.826667-6.826666 3.413333-6.826667 3.413333-10.24v-3.413334c6.826667-78.506667-20.48-119.466667-81.92-133.12-17.066667-3.413333-34.133333-3.413333-51.2 0-3.413333 0-10.24 0-13.653333 3.413334l-10.24 10.24c-3.413333 3.413333-3.413333 6.826667-3.413334 10.24 0 6.826667 3.413333 13.653333 6.826667 17.066666 3.413333 3.413333 10.24 6.826667 17.066667 6.826667 51.2-13.653333 81.92 3.413333 85.333333 51.2 0 10.24 0 23.893333-3.413333 34.133333 0 6.826667 3.413333 13.653333 6.826666 17.066667 13.653333 3.413333 20.48 6.826667 27.306667 6.826667z" fill="#F39830" p-id="8456"></path><path d="M781.653333 160.426667c-30.72-6.826667-68.266667-6.826667-119.466666 3.413333h-3.413334v3.413333c-10.24 3.413333-13.653333 6.826667-20.48 13.653334-3.413333 6.826667-6.826667 13.653333-6.826666 20.48 0 10.24 3.413333 17.066667 10.24 23.893333 6.826667 10.24 13.653333 13.653333 23.893333 13.653333h13.653333c3.413333 0 6.826667 0 10.24-3.413333 3.413333 0 6.826667-3.413333 6.826667-3.413333h37.546667c10.24 0 20.48 3.413333 34.133333 6.826666s23.893333 10.24 34.133333 13.653334c10.24 6.826667 23.893333 13.653333 34.133334 23.893333 10.24 10.24 20.48 23.893333 30.72 37.546667 17.066667 40.96 20.48 78.506667 10.24 116.053333v6.826667c0 3.413333 0 6.826667-3.413334 6.826666 0 3.413333 0 6.826667-3.413333 10.24v10.24c0 6.826667 0 10.24 3.413333 13.653334 3.413333 3.413333 6.826667 6.826667 13.653334 10.24 3.413333 0 10.24 3.413333 17.066666 3.413333 20.48 0 30.72-10.24 34.133334-34.133333 6.826667-27.306667 13.653333-51.2 13.653333-75.093334 0-23.893333 0-44.373333-3.413333-64.853333s-10.24-34.133333-20.48-51.2c-6.826667-13.653333-17.066667-27.306667-27.306667-40.96-10.24-10.24-23.893333-20.48-37.546667-30.72-13.653333-10.24-27.306667-17.066667-40.96-20.48-13.653333-6.826667-27.306667-10.24-40.96-13.653333z" fill="#F39830" p-id="8457"></path></svg>